<svg id="local_phone-24px" xmlns="http://www.w3.org/2000/svg" width="63.45" height="63.45" viewBox="0 0 63.45 63.45">
  <path id="Path_1024" data-name="Path 1024" d="M0,0H63.45V63.45H0Z" fill="none"/>
  <path id="Path_1025" data-name="Path 1025" d="M12.359,8.287a32.551,32.551,0,0,0,1.19,6.847l-3.172,3.172A39.2,39.2,0,0,1,8.367,8.287h3.992M38.426,40.065a33.715,33.715,0,0,0,6.874,1.19v3.939a40.784,40.784,0,0,1-10.046-1.983l3.172-3.146M14.9,3H5.644A2.652,2.652,0,0,0,3,5.644,44.94,44.94,0,0,0,47.943,50.587a2.652,2.652,0,0,0,2.644-2.644V38.717a2.652,2.652,0,0,0-2.644-2.644,30.157,30.157,0,0,1-9.438-1.507,2.219,2.219,0,0,0-.82-.132,2.708,2.708,0,0,0-1.877.767l-5.816,5.816A40.049,40.049,0,0,1,12.57,23.595l5.816-5.816a2.653,2.653,0,0,0,.661-2.7,30.034,30.034,0,0,1-1.507-9.438A2.652,2.652,0,0,0,14.9,3Z" transform="translate(4.931 4.931)" fill="#a5a5a5"/>
</svg>
