<svg id="language-24px" xmlns="http://www.w3.org/2000/svg" width="63.45" height="63.45" viewBox="0 0 63.45 63.45">
  <path id="Path_1022" data-name="Path 1022" d="M0,0H63.45V63.45H0Z" fill="none"/>
  <path id="Path_1023" data-name="Path 1023" d="M28.411,2A26.437,26.437,0,1,0,54.875,28.437,26.424,26.424,0,0,0,28.411,2ZM46.732,17.862h-7.8a41.372,41.372,0,0,0-3.648-9.412A21.228,21.228,0,0,1,46.732,17.862ZM28.437,7.393a37.242,37.242,0,0,1,5.05,10.469h-10.1A37.242,37.242,0,0,1,28.437,7.393ZM7.975,33.725a21.789,21.789,0,0,1-.687-5.287,21.789,21.789,0,0,1,.687-5.287h8.936a43.662,43.662,0,0,0-.37,5.287,43.662,43.662,0,0,0,.37,5.287Zm2.168,5.287h7.8a41.372,41.372,0,0,0,3.648,9.412A21.115,21.115,0,0,1,10.143,39.012Zm7.8-21.15h-7.8A21.115,21.115,0,0,1,21.59,8.451a41.372,41.372,0,0,0-3.648,9.412Zm10.5,31.619a37.242,37.242,0,0,1-5.05-10.469h10.1A37.242,37.242,0,0,1,28.437,49.481Zm6.186-15.757H22.251a38.9,38.9,0,0,1-.423-5.287,38.559,38.559,0,0,1,.423-5.287H34.624a38.559,38.559,0,0,1,.423,5.287A38.9,38.9,0,0,1,34.624,33.725Zm.661,14.7a41.372,41.372,0,0,0,3.648-9.412h7.8A21.228,21.228,0,0,1,35.285,48.424Zm4.679-14.7a43.662,43.662,0,0,0,.37-5.287,43.662,43.662,0,0,0-.37-5.287H48.9a21.789,21.789,0,0,1,.687,5.287,21.789,21.789,0,0,1-.687,5.287Z" transform="translate(3.287 3.287)" fill="#a5a5a5"/>
</svg>
